<svg id="Capa_1" data-name="Capa 1" xmlns="http://www.w3.org/2000/svg" viewBox="0 0 85.04 85.04"><defs><style>.cls-1{fill:#fff;}.cls-2{fill:#009ade;}.cls-3{fill:none;stroke:#fff;stroke-miterlimit:10;stroke-width:0.83px;}</style></defs><path class="cls-1" d="M30.83,43.54c.26,0,.49,0,.75,0,2.34.83,4.9,1,7.14,2.17,2.15-1.52-1.69-2.74-2.9-3.39,2.93-1.91,6.09-3.4,9-5.27,1.3-1.58-1.12-1.55-2-.59-1.36,1-7.91,3.79-3,.6,1-.75,6.9-3.58,3.66-4.33-1.4,1-2.8,1.88-4.4,2.84-.62.27-1.78,1.59-2.27.87.9-1.6,3.24-2.71,4.7-3.89,1.06-3.45-5,1.86-5.85,2.41-.37.27-1,.67-1.06,0,.79-1.53,3-2.31,3.94-3.72-1-2.23-7.32,4.92-8.71,5.85-1.81,1.52-1.13,2.54-4.09,4a17.57,17.57,0,0,0,.4,5.75c3.09-2.16,3.64-2.93,4.74-3.32"/><path class="cls-1" d="M54.93,46.26c-1.45,1-2.2,3.35-3.79,4.23-1.75-.32,6.88-8.74,2.39-7.32-5.28,8.28-4.79,4.95-2.14-1.85.4-.64.54-1.52-.36-1.68-2.21,1-2.13,4.83-3.26,7-2.14,3.64.78-7.29-.94-7.06-2.33,1.13-.77,8-3.36,10.63-.5-1.32-1.72-6.28-3.61-3.79,1.28,2.31,1.52,5,2.45,7.43-.15,2.34-1,1.87-4,6a16.48,16.48,0,0,0,5.83.7c2.16-3.44,3-2.84,4.92-5,.93-1.47,8.24-8.33,5.89-9.28"/><path class="cls-2" d="M28.2,46.86c.4,23.36,35.08,23.36,35.47,0-.4-23.35-35.08-23.35-35.47,0"/><path class="cls-1" d="M35.24,46.86c0,2.32-3.59,2.32-3.56,0s3.6-2.31,3.56,0"/><path class="cls-3" d="M35.24,46.86c0,2.32-3.59,2.32-3.56,0S35.28,44.55,35.24,46.86Z"/><path class="cls-1" d="M53.06,57.58c0,2.31-3.59,2.31-3.56,0s3.6-2.32,3.56,0"/><path class="cls-3" d="M53.06,57.58c0,2.31-3.59,2.31-3.56,0S53.1,55.26,53.06,57.58Z"/><path class="cls-1" d="M42.37,36.15c0,2.32-3.6,2.32-3.56,0s3.6-2.32,3.56,0"/><path class="cls-3" d="M42.37,36.15c0,2.32-3.6,2.32-3.56,0S42.41,33.83,42.37,36.15Z"/><path class="cls-1" d="M42.37,57.58c0,2.31-3.6,2.31-3.56,0s3.6-2.32,3.56,0"/><path class="cls-3" d="M42.37,57.58c0,2.31-3.6,2.31-3.56,0S42.41,55.26,42.37,57.58Z"/><path class="cls-1" d="M60.19,46.86c0,2.32-3.6,2.32-3.56,0s3.6-2.31,3.56,0"/><path class="cls-3" d="M60.19,46.86c0,2.32-3.6,2.32-3.56,0S60.23,44.55,60.19,46.86Z"/><path class="cls-1" d="M53.06,36.15c0,2.32-3.59,2.32-3.56,0s3.6-2.32,3.56,0"/><path class="cls-3" d="M53.06,36.15c0,2.32-3.59,2.32-3.56,0S53.1,33.83,53.06,36.15Z"/><line class="cls-3" x1="40.59" y1="36.15" x2="51.28" y2="57.58"/><line class="cls-3" x1="51.28" y1="57.58" x2="58.41" y2="46.86"/><line class="cls-3" x1="58.41" y1="46.86" x2="51.28" y2="36.15"/><line class="cls-3" x1="51.28" y1="36.15" x2="40.59" y2="36.15"/><line class="cls-3" x1="40.59" y1="36.15" x2="40.59" y2="57.58"/><line class="cls-3" x1="40.59" y1="57.58" x2="33.46" y2="46.86"/><line class="cls-3" x1="33.46" y1="46.86" x2="51.28" y2="36.15"/><line class="cls-3" x1="51.28" y1="36.15" x2="51.28" y2="57.58"/><line class="cls-3" x1="51.28" y1="57.58" x2="33.46" y2="46.86"/><line class="cls-3" x1="41.18" y1="57.58" x2="51.28" y2="36.15"/><line class="cls-3" x1="33.46" y1="46.86" x2="40.59" y2="36.15"/><line class="cls-3" x1="41.18" y1="57.58" x2="51.28" y2="57.58"/><line class="cls-3" x1="33.46" y1="46.86" x2="58.41" y2="46.86"/><line class="cls-3" x1="41.18" y1="57.58" x2="57.68" y2="46.86"/><line class="cls-3" x1="40.59" y1="36.15" x2="57.68" y2="46.86"/></svg>