<svg id="Capa_1" data-name="Capa 1" xmlns="http://www.w3.org/2000/svg" viewBox="0 0 85.04 85.04"><defs><style>.cls-1{fill:#009ade;}.cls-2{fill:#fff;}</style></defs><path class="cls-1" d="M24.71,43c.4,23.36,35.08,23.36,35.48,0-.4-23.35-35.08-23.35-35.48,0"/><path class="cls-2" d="M48.82,27.2c1.17.9,2,1.45,1.7,3.09-1.47-.09-1.5-2.58-3.08-2.5-.86-.16-.87-.63,0-.67.64-.18.92-.51,1.37.08"/><path class="cls-2" d="M46.36,29c0-.57-1.21-.34-1.54-.47-1.45-1.3,3.21-.48,2.62.34.82,1.07-.51,1.39-1.2.68-.39-.36.15-.16.12-.55"/><path class="cls-2" d="M46.6,26.57c.67.23.21.34-.17.6a1.94,1.94,0,0,1-2.38,0c-.59-.82,2.2-.75,2.55-.63"/><path class="cls-2" d="M43.61,27.41c.12-.35.71.11.8.31-.08.39-.87.06-.8-.31"/><path class="cls-2" d="M41.53,27.17a1.75,1.75,0,0,1,1.9.38c-.06.63-3.25,0-1.9-.38"/><path class="cls-2" d="M40.6,27.64c.6.39,1.32-.08,1.88.26.54.76-1.65.65-2.09.66-1.2-.16-1-1.38.21-.92"/><path class="cls-2" d="M30.41,29.51c1-.31,1.89-1,2.91-1.26a29.14,29.14,0,0,1,6.79.51c.94-.24,2,.19,2.82-.22.5-.31,1.3-.48,1.46.32.18,1-1.28.62-1.77.86-1.62.77.09,1.35.9,1.74.36.78.56.72,1.06,0,.22-.15.46-.12.64-.32.33-.48.52-1.52,1.35-1.15.24.16.14.44.31.59A.84.84,0,0,0,48,30.49c.49-.08.71.87.87,1.15.46.36.36.86-.27.67-2-.37-.58.6-1.67,1.18-.64.28-1.31.33-1.59,1-.9-.15-1,.83-1.82,1,0-.09-.07-.18,0-.3-.45.23-.28.91-.55,1.22-.72.51-2.2.32-1.91,1.67,0,.27.23,1.49-.24.89-.24-1.2-.75-1.46-2-1.21-2-.48-4.25.41-3.55,2.74.37.68,1.31,1.06,1.7.18.3-.51,2-1.2,1.24,0-1.31,1.85.36.68,1.08,1.31,0,.81-.74,2.24.88,1.94,1-.3,1,1,1.85-.19,1.16-.88,2.12,0,3.3.17a3.35,3.35,0,0,1,2.1.62,2.12,2.12,0,0,1,1.31.62c.65.29,1.5.53,1.32,1.43.42.73,1.57.7,2.15,1.37,3.52,1-.3,2.3-.49,4.22-1.16,1.47-3.15,1.5-4,3.46-1.3.7-2.73,1.31-3.48,2.69-.15,2.5-2.27,0-1.43-1.28.31-2.74,1.61-4.74-1.47-6.3-4-5.14,1.48-3.94-.86-6.41-1.22.38-1.82-.67-2.6-1.38-.68-.22-1.31-.17-1.77-.8a12.33,12.33,0,0,1-3.38-1.45c-.54-.37-.21-.65-.45-1.2A8.92,8.92,0,0,1,31,36.58c-.5.48-.12,1.51,0,2.11-.06,3-1.58-3.8-.36-4.49.81-1,1.88-1.58,2.39-2.87,1-1,.44-1.64-.82-1.56s-2.15,1-3.56.92a4.76,4.76,0,0,0,1.74-1.18"/><path class="cls-2" d="M44.57,41.33a1.72,1.72,0,0,0-.93.13c-.81.2-.86-.61-.16-.74.29,0,1.87.42,1.09.61"/><path class="cls-2" d="M42.7,40.84c-.11.11-.41,0-.54,0-.36,0-.76.21-.85-.25-.28-.59-.85-.38-1.39-.61-.27,0-.56.39-.78.1.56-.83,3.67,0,3.56.79"/></svg>