<svg id="Capa_1" data-name="Capa 1" xmlns="http://www.w3.org/2000/svg" viewBox="0 0 85.04 85.04"><defs><style>.cls-1{fill:#009ade;}.cls-2{fill:#fff;}</style></defs><path class="cls-1" d="M27.55,46.86c.4,23.36,35.08,23.36,35.48,0-.4-23.35-35.08-23.35-35.48,0"/><path class="cls-2" d="M41.23,42.64c.06,4.21-6.55,4.22-6.49,0s6.55-4.22,6.49,0"/><path class="cls-2" d="M43.22,54.34a.83.83,0,0,0,.77-1c.11-8.8-12.13-8.8-12,0a.84.84,0,0,0,.77,1Z"/><path class="cls-2" d="M55.79,42.64c.06,4.21-6.56,4.21-6.49,0s6.55-4.22,6.49,0"/><path class="cls-2" d="M57.78,54.34a.83.83,0,0,0,.77-1c.11-8.8-12.13-8.8-12,0a.83.83,0,0,0,.77,1Z"/><path class="cls-2" d="M45,39.12l-.51.52a4.4,4.4,0,0,1,.21,6.15l.52.52A5.14,5.14,0,0,0,45,39.12"/><path class="cls-2" d="M42.75,41.07l-.52.52a1.61,1.61,0,0,1,.22,2.25l.52.52a2.36,2.36,0,0,0-.22-3.29"/><path class="cls-2" d="M43.86,40.12l-.52.53a3,3,0,0,1,.22,4.14l.52.52a3.72,3.72,0,0,0-.22-5.19"/></svg>