<svg id="Capa_1" data-name="Capa 1" xmlns="http://www.w3.org/2000/svg" viewBox="0 0 85.04 85.04"><defs><style>.cls-1{fill:#009ade;}.cls-2{fill:#fff;}</style></defs><path class="cls-1" d="M42,25.21A17.75,17.75,0,0,0,24.37,41.32c2.95-1.47,2.27-2.49,4.09-4a75.39,75.39,0,0,1,6.62-5.65c.5-.42,1.94-1.32,2.08-.2-.26.79-1.49,1.18-2,1.77-.46.74-1.63,1.13-1.89,2,0,.62.7.22,1.06,0,.88-.55,6.91-5.86,5.86-2.41-1.46,1.18-3.81,2.29-4.71,3.89.49.72,1.65-.6,2.27-.86,1.6-1,3-1.86,4.41-2.85,3.24.75-2.69,3.58-3.67,4.33-1.29.55-3,2.34-.26,1.09,1.66-.38,4-3.08,5.59-2.12.19,2-7.46,4.57-9.27,6.29,1.2.65,5,1.87,2.89,3.39-2.23-1.17-4.79-1.34-7.14-2.17-2.1.17-1.85.95-5.48,3.36A17.78,17.78,0,0,0,37,60c3-4.11,3.87-3.63,4-6-.93-2.44-1.17-5.12-2.45-7.43,1.9-2.48,3.11,2.47,3.62,3.79,2.61-2.63,1-9.38,3.35-10.63,1.55,1.15-.13,4.5.14,6.26-.3,1.06.38,2.48.81.8.65-1.18,2.24-9.55,3.95-6.15-.82,2-1.46,4.28-2.25,6.44-.83,4.08,3.56-3,4.06-3.73,4.48-1.4-4.14,7-2.4,7.32,1.17-.05,3.83-6.21,4.37-3.52C54,48.22,53,49,52.6,50c-1.7,1.85-3.16,3.93-4.89,5.77-1.88,2.11-2.76,1.52-4.92,5,22.66-1,21.95-35.45-.77-35.5"/><path class="cls-2" d="M29.54,43.56a6,6,0,0,0,.74,0c2.35.83,4.91,1,7.14,2.17,2.15-1.52-1.68-2.73-2.89-3.39,2.92-1.91,6.09-3.4,9-5.27,1.31-1.58-1.12-1.55-2-.59-1.36,1-7.9,3.8-3,.6,1-.74,6.9-3.58,3.67-4.33-1.41,1-2.8,1.88-4.41,2.85-.61.26-1.78,1.58-2.26.86.89-1.6,3.24-2.71,4.7-3.89,1-3.45-5,1.86-5.86,2.41-.36.27-1,.67-1.06.05.8-1.53,3-2.31,4-3.72-1-2.23-7.33,4.92-8.71,5.85-1.82,1.53-1.13,2.54-4.09,4a17.3,17.3,0,0,0,.4,5.75c3.08-2.16,3.63-2.93,4.74-3.32"/><path class="cls-2" d="M53.64,46.28c-1.45,1-2.21,3.35-3.79,4.23-1.76-.32,6.87-8.74,2.39-7.32-5.29,8.28-4.8,5-2.14-1.85.4-.63.54-1.52-.36-1.68-2.22,1-2.13,4.84-3.26,7-2.15,3.64.77-7.29-.94-7.06-2.33,1.13-.77,8-3.36,10.63-.5-1.32-1.72-6.28-3.62-3.79,1.28,2.31,1.52,5,2.45,7.43-.15,2.34-1,1.88-4,6a16.4,16.4,0,0,0,5.82.7c2.16-3.44,3-2.84,4.92-5,.94-1.47,8.24-8.33,5.9-9.28"/></svg>