<svg id="Capa_1" data-name="Capa 1" xmlns="http://www.w3.org/2000/svg" viewBox="0 0 85.04 85.04"><defs><style>.cls-1{fill:#009ade;}.cls-2{fill:#fff;}</style></defs><path class="cls-1" d="M28,46.86c.4,23.36,35.08,23.36,35.47,0-.39-23.35-35.08-23.35-35.47,0"/><path class="cls-2" d="M35.1,40.67c-.3,2.48-4.27,1.76-3.92-.59s4.27-1.76,3.92.59"/><path class="cls-2" d="M38.18,45.77l-3.3-3.64c-.94,0-2.21.07-3.14.15l-2.68,4,.13,1.12L32,44.24,31.71,55l-.3.2,2.08-.19.5-5.51,1.54,5.3,2-.17-.31-.15L35,44l3.24,2.8Z"/><path class="cls-2" d="M38.18,45.79l2.51-3.66c.83,0,2,.1,2.84.14l3,4.07,0,1.11-3-3.22L45.26,55l.3.24L43.63,55,42.45,49.5l-.67,5.33-1.85-.17.27-.16.62-10.45-2.58,2.81Z"/><path class="cls-2" d="M43.7,39.83a1.75,1.75,0,1,1-3.32,1.08,1.75,1.75,0,1,1,3.32-1.08"/><path class="cls-2" d="M52.2,40.88A1.69,1.69,0,1,1,49,39.82a1.69,1.69,0,1,1,3.19,1.06"/><path class="cls-2" d="M49.25,42.27c.81-.05,1.92-.22,2.73-.24l2.52,3.44v1.05L52,43.94,53,54.14l.24.14-1.72.31-.91-5.2-.89,5.53-1.82.33.26-.22L49.3,44.22l-2.74,3.35,0-1.11Z"/><path class="cls-2" d="M54.5,45.19l2.63-3.35c.79.11,1.89.25,2.68.37l2.59,4.38-.08,1.09-2.6-3.48.66,11,.26.24-1.84-.48-.65-5.62-1.1,5.16-1.68-.42.25-.1,1.46-10.23-2.6,2.51Z"/><path class="cls-2" d="M60.21,39.91a1.7,1.7,0,1,1-3.33.57,1.7,1.7,0,1,1,3.33-.57"/></svg>