<svg id="Capa_1" data-name="Capa 1" xmlns="http://www.w3.org/2000/svg" viewBox="0 0 85.04 85.04"><defs><style>.cls-1{fill:#009ade;}.cls-2{fill:#fff;}</style></defs><path class="cls-1" d="M25.22,43c.4,23.36,35.08,23.36,35.47,0-.39-23.35-35.07-23.35-35.47,0"/><path class="cls-2" d="M43,50.41H56.68l.49-1.19L53.78,36c-3.34,2.28-7.89-3-10.82.72C40,33,35.47,38.28,32.13,36L28.75,49.22l.48,1.19Zm.51-13.23c2.63-3.18,6.7,1.37,9.87-.21l3,11.85c-4.2,1.3-8.72-2.35-12.91-.13ZM32.57,37c1.86.84,3.79,0,5.52-.69,1.39-.3,3.53-.5,4.35.9V48.69c-4.19-2.22-8.7,1.43-12.91.13ZM43,51H28.73l.45.77H56.74l.44-.77Z"/></svg>