<svg id="Capa_1" data-name="Capa 1" xmlns="http://www.w3.org/2000/svg" viewBox="0 0 85.04 85.04"><defs><style>.cls-1{fill:#009ade;}.cls-2{fill:#fff;}</style></defs><path class="cls-1" d="M22.18,43c.39,23.36,35.08,23.36,35.47,0-.4-23.35-35.08-23.35-35.47,0"/><path class="cls-2" d="M53.27,47.54c-.69,0-1.1.58-1.5.41-.67-.39-.13-3.67-.19-4.67-8.74,1.17-1.28-2.26-5.8-2.86-4.74.6,3.49,4.16-5.7,3.06-.08.44-.38,2.85,0,3,3.39-2.08,4.16,5.48.6,4.52-1.45-1.12-.31,3.09-.42,3.64.82,0,3.54.52,3.9,0-.53-1.34-.77-2.83,1.68-2.91,5.39.64-1.83,4.13,5.74,2.91,0-.83-.35-3.67.23-3.86,2.89,1.73,3.76-2.68,1.49-3.29"/><path class="cls-2" d="M47.4,43.54c.09.34,3.53.56,3.93.39,0-.26,0-.4,0-.4a16.16,16.16,0,0,1-4,0"/><path class="cls-2" d="M53.23,47.8c-.48.05-.95.62-1.44.46.48,1,1.55-.56,2.2,0a.76.76,0,0,0-.76-.49"/><path class="cls-2" d="M42.82,46.9c1.42,1.77,0,5.41-2.48,4.3-.3,0,.16,3.36.19,3.32s0-2.57.21-2.69c2.91.56,4-3.2,2.08-4.93"/><path class="cls-2" d="M45.89,40.64c-4.41.43,3.63,4.08-5.62,3-.08.29-.32,2.67-.1,2.69a17.94,17.94,0,0,1,.48-2.32c9.58,1.32.63-3.91,6.45-2.89a1.48,1.48,0,0,0-1.21-.53"/><path class="cls-2" d="M47.8,52.35c1.1.69-.41,2.38.68,2.31a1.7,1.7,0,0,0-.68-2.31"/><path class="cls-2" d="M53.3,35.48c-.69,0-1.11.58-1.51.42-.72-.21-.1-4.21,0-4.73C44.26,30,51.43,33.45,46,34.05c-5.59-.68,2.11-4.16-5.88-2.87,0,.25.56,4.65-.21,4.76-1.13-.27-2.58-1.15-2.65,1.16s1.64,1.4,2.65,1.16c.68.38.27,3.65.25,4.63h0c.15,0,3.74.41,3.91,0-2-2.62,2.2-4.06,3.75-2.26,1,2.5-2.16,2.52,3.75,2.1,0-.55-.35-3.89.23-3.91,2.94,1.74,3.82-2.71,1.51-3.34"/><path class="cls-2" d="M42.19,31.17c-.86.06-1.84.18-1.84.18,0,.32.52,4.76-.23,4.91-.39.16-1.22-.61-1.77-.53-1-.06-1.19,2.6-.1,2.85-.63-.52-.44-2.55.4-2.5,3.52,1.86,2.09-2.74,2.16-4.41,0,0,3-.4,3.19-.38-.08-.22-.9-.18-1.81-.12"/><path class="cls-2" d="M48.26,31.28c1.16,2-1.43,3.7-3.57,2.68,1.05,1.25,5,.41,4.1-1.68-.88-1.41,2.14-.7,2.69-.91,0-.08-3.17-.37-3.22-.09"/><path class="cls-2" d="M53.19,35.7c-.53,0-.82.5-1.28.47.45.85,1.65-.66,2.19,0a.94.94,0,0,0-.91-.52"/><path class="cls-2" d="M48,40.5c1.09.79-.67,2.44.68,2.27C49,42,48.7,40.66,48,40.5"/><path class="cls-2" d="M40.39,38.73a17.46,17.46,0,0,1,0,4l.54.06c.13-.87-.13-3.9-.55-4"/><path class="cls-2" d="M39,39.26C36,40.7,35.88,33.58,38.88,35c1.6,1.17.6-3,.61-3.76-.83.06-3.61.24-3.81-.34,1.7-2.86-2.63-3.73-3.24-1.48,0,.68.57,1.09.41,1.48,0,.64-4.26.13-4.41.13.09.44-1,5.22.66,3.86,3.07-1.43,2.9,5.87-.07,4.39-1.37-1-.64,2.44-.66,3.23h0c0,.23.07.52.07.5.19,0,4.4-.51,4.45.13.16.4-.44.81-.41,1.49.62,2.28,5,1.4,3.27-1.49-.07-.62,3.45-.31,3.77-.18-.07-.21.88-4.85-.57-3.68"/><path class="cls-2" d="M39.35,31.94c0-.33-.07-.47-.07-.47a10.77,10.77,0,0,1-3.17-.11c-.13.34,2.78.74,3.24.58"/><path class="cls-2" d="M31.16,35.51c1.15,2.17-.22,5-2.59,3.85-.34.15,0,3.49.05,3.55.21-.61-.47-3.94,1-2.94,2.26,1.13,2.81-3.58,1.55-4.46"/><path class="cls-2" d="M34.34,28.33c-4.5.6,2.69,4.11-5.79,2.94,0,.22-.52,3.59-.06,3.69.1-.07.42-3.26.47-3.27.22,0,4.38.48,4.46-.21-.68-2-.06-3.6,2.47-2.34a2,2,0,0,0-1.55-.81"/><path class="cls-2" d="M33.61,43.66a.94.94,0,0,0-.41-.51c0,.77-1,1.76.25,2.3-.57-.57.17-1.38.16-1.79"/><path class="cls-2" d="M39.38,39.43c-.52.19-1.61.48-2.14-.13a1.73,1.73,0,0,0,2.25.64c0-.3,0-.48-.11-.51"/><path class="cls-2" d="M41.19,46.79c-.88,0-1.1.58-1.49.41-.59-.22-.3-2.74-.24-3.69-.18,0-3.7-.88-2.8.41,1.45,3.17-6,3.36-4.65.09,1.06-1.29-3.21-.37-3.48-.44,0,.83.2,3.54-.36,3.7-1-.3-2.64-1-2.69,1.43s1.6,1.68,2.69,1.42c.7.25.09,4.13.07,4.71.92,0,4.15-.54,4.53.14.17.4-.44.82-.42,1.52.64,2.32,5.1,1.42,3.35-1.52.2-.6,3.07-.42,3.92-.35,0-.57-.6-4.34.08-4.55.39-.16.8.44,1.49.42,1.6.17,1.56-3.86,0-3.7"/><path class="cls-2" d="M38.31,43.5c-1.16,0-1.79-.41-1.29.71.5,2-2.4,3.09-4.13,2.12,1.32,1.23,4.92.47,4.47-1.59-.75-1.53,1.12-1,1.92-1.11a9.67,9.67,0,0,0-1-.13"/><path class="cls-2" d="M30.21,43.59c-.78,0-1.48.15-1.48.15-.1,2,.79,4.62-1.93,3.33-1.31-.2-1.46,3.25-.17,3.31-.95-.69-.52-3.28.57-2.89,2.55,1.56,2.12-1.51,2.11-3.4a13.77,13.77,0,0,1,2.7-.41c-.08-.24-.93-.14-1.8-.09"/><path class="cls-2" d="M41,47c-.46.09-.78.46-1.05.45.43,1,1.32-.67,2.06.08A1,1,0,0,0,41,47"/><path class="cls-2" d="M28.7,50.47a21.85,21.85,0,0,1-.19,4.09l.62-.06c.15-1.07,0-3.77-.43-4"/><path class="cls-2" d="M33.57,55.36c-.06-.15-.21-.21-.5-.25-.11.72-1.12,2,.4,2.29-.75-.65.2-1.5.1-2"/></svg>