<svg id="Capa_1" data-name="Capa 1" xmlns="http://www.w3.org/2000/svg" viewBox="0 0 85.04 85.04"><defs><style>.cls-1{fill:#009ade;}.cls-2{fill:#fff;}</style></defs><path class="cls-1" d="M27.48,46.65C27.88,70,62.56,70,63,46.65c-.4-23.36-35.08-23.36-35.48,0"/><path class="cls-2" d="M54,61.7c.08-.28.15-.57.23-.85l-.36.82-.21,0a8.2,8.2,0,0,1,.92-2,1.26,1.26,0,0,0,.37.6l-.39-1c.1.26.09.22.08.21l-.14-.08h0a13.1,13.1,0,0,0-.9,2.24h-.1a5.43,5.43,0,0,1,.26-1.38l-.23.52v-.68c-.12.38-.29,1.12-.46,1.49h0a16.41,16.41,0,0,0,.26-1.71l-.47,1.06a10.77,10.77,0,0,1,.29-1.37c-.17.52-.36,1-.51,1.52,0-.1.38-2.1.4-2.2a9.42,9.42,0,0,0-.32,1.24l.13-1.38h-.06c-.07.36-.11.72-.15,1.08a1.12,1.12,0,0,0,0-.36c-.07.35-.24,1.53-.32,1.86-.18-.58.2-1.1.06-1.71l-.16.74c0-.29,0-.58.08-.88L52,60.52a2.53,2.53,0,0,1,0-1l-.09.35-.06-.43c-.12.4.05.79-.11,1.17v-.82a1.47,1.47,0,0,0-.12.49c0-.1.2-1.5.22-1.63l-.07,0c-.08.36-.13.71-.19,1.07,0-.24,0-1.48,0-1.74l0,.12-.23-7.25c.14-.15.09-.31-.08-.43v-.18a.27.27,0,0,0,0-.5.18.18,0,0,0,0-.17v-.38a.18.18,0,0,0,0-.25V48.9c.16,0,4.4-.6,4.55-.66L56.43,47l-.83-.89c-.21-.12-4.26.91-4.46.9a.16.16,0,0,0,0-.09v-.38a.17.17,0,0,0,0-.21l0-1.66a.19.19,0,0,0,0-.28V44.1a.18.18,0,0,0,.07-.16c.15,0,7,.74,7.1.71L58.8,44l-.72-.79s-7-.89-7-.9a.17.17,0,0,0,0-.26v-.27a.19.19,0,0,0,0-.3l0-1.59a.11.11,0,0,0,0-.16v-.32a.11.11,0,0,0,0-.18v-.15c.31-.14.43-.43.17-.64l.58-.41-1.27-1.65-1.28,1.8.56.22c-.29.19-.22.51.1.66l0,.11H50v0a.12.12,0,0,0,0,.19v.25l-7.38-3.3s-.86.54-.91.54V37s.76,1.3.82,1.32l7.47,3v.14a.17.17,0,0,0,0,.28v.28a.17.17,0,0,0,0,.27V43.8a.19.19,0,0,0,0,.3v.28a.18.18,0,0,0,0,.27L44,45a12,12,0,0,0-.88.87l.76.85c.15,0,5.86-.22,6-.22a.13.13,0,0,0,0,.09v.33a.17.17,0,0,0,0,.25v1.81a.18.18,0,0,0,0,.28v.33a.19.19,0,0,0-.06.21c-.24.15-.2.39.05.52v.13c-.2.11-.29.29-.14.45L49.61,59a2.21,2.21,0,0,0-.16-.35l-.15.08c0,.06-.4,1-.43,1a2.67,2.67,0,0,0,.49-.86,1.16,1.16,0,0,1,.15.92l-.08-.35a2.9,2.9,0,0,1,0,1.06c-.06-.19-.08-.46-.12-.66l0,.07v-.08l-.05,0a1.7,1.7,0,0,1,0,.39l-.12-.58c-.13.46.13.87,0,1.3l-.31-1.34s0,.1,0,.15a2.17,2.17,0,0,0-.19-.41,16.88,16.88,0,0,1,.29,1.68c0-.08-.46-2.18-.49-2.3a26.75,26.75,0,0,0,.47,2.82h0l-.6-1.74a15.69,15.69,0,0,0,.48,1.73c-.19-.14-.38-.94-.45-1.15a6.79,6.79,0,0,0,.18.78v0a1.14,1.14,0,0,0,.16.42h-.08A3.27,3.27,0,0,1,48,60.22a1.48,1.48,0,0,0-.05.35l-.54-1a5.51,5.51,0,0,1,.64,2.09h0a8.42,8.42,0,0,1-.4-1.41v.42a.36.36,0,0,0-.07-.1,1.76,1.76,0,0,1,.09.55c-.15-.27-.09-.59-.28-.86l0,.43-.17-.32a2.88,2.88,0,0,1,.25,1l-.33-.6,0,0c.06.18.12.35.19.53L47,60.66a2.81,2.81,0,0,0,.38,1.05h-.14l-.56-1,.39,1-.32,0-.51-.74q.19.39.42.75h-.1l-.14-.22.11.23c-.48.06-1,.14-1.4.23l-.25-.35a.79.79,0,0,0,.19.36,17.45,17.45,0,0,0-5.14,1.72,17.83,17.83,0,0,0,14.83-1.94L54,61.7m-6.29-.23s0,0,0,.05l0-.05m.56.15s-.06-.4-.06-.42l.21.41h-.15m.4,0-.06-.1.09.1h0m.88-.89v0Zm2-.21s0,0,0,0a.08.08,0,0,1,0,0m.29.53-.09.37c0-.21.07-.42.09-.64a2.43,2.43,0,0,1,0,.27m.67-.33v0c0-.12,0-.23,0-.35,0,.11,0,.22,0,.33m.29.87a12.49,12.49,0,0,0,.37-1.23l-.3,1.23H52.8m.57-.47-.22.5h0a9.32,9.32,0,0,0,.23-.91c0,.14,0,.27,0,.41"/></svg>