<svg id="Capa_1" data-name="Capa 1" xmlns="http://www.w3.org/2000/svg" viewBox="0 0 85.04 85.04"><defs><style>.cls-1{fill:#009ade;}.cls-2{fill:#fff;}</style></defs><path class="cls-1" d="M24.78,43c.4,23.36,35.08,23.36,35.48,0-.4-23.35-35.08-23.35-35.48,0"/><path class="cls-2" d="M51.2,34.85C45.71,19,23.23,34.14,37.85,45c1.68,1.68,1.28,4.33,3.36,5.47l7.5-1.63c1.47-2.07-.09-3.71.8-6.36.61-2.55,2.27-4.9,1.69-7.63m-12.28-1h0a2.84,2.84,0,0,0-1.14,2.93h0a1.12,1.12,0,0,1-2.2.46,5.06,5.06,0,0,1,2.26-5.38,1.14,1.14,0,0,1,1.08,2"/><path class="cls-2" d="M48,50.14c-.94.55-7.12.6-6.65,2.53s6-.56,7.1-.46A1.07,1.07,0,1,0,48,50.14"/><path class="cls-2" d="M48.55,53.2l-5.41,1.17a1,1,0,1,0,.43,2L49,55.19a1,1,0,1,0-.43-2"/><path class="cls-2" d="M45.87,57.85c.75-.22,2.73-.28,2.53-1.44l-3.79.83a1,1,0,0,0,1.26.61"/></svg>